<?xml version="1.0" encoding="utf-8"?>
<!-- Generator: Adobe Illustrator 19.0.0, SVG Export Plug-In . SVG Version: 6.00 Build 0)  -->
<svg version="1.1" id="Calque_1" xmlns="http://www.w3.org/2000/svg" xmlns:xlink="http://www.w3.org/1999/xlink" x="0px" y="0px"
	 viewBox="-296 388 18 18" style="enable-background:new -296 388 18 18;" xml:space="preserve">
<style type="text/css">
	.st0{fill:#989EA2;}
</style>
<path class="st0" d="M-283.1,399.4h-0.8l-0.3-0.3c1-1.2,1.6-2.7,1.6-4.4c0-3.7-3-6.7-6.7-6.7s-6.7,3-6.7,6.7s3,6.7,6.7,6.7
	c1.7,0,3.2-0.6,4.4-1.6l0.3,0.3v0.8l5.1,5.1l1.5-1.5L-283.1,399.4z M-289.3,399.4c-2.6,0-4.6-2.1-4.6-4.6c0-2.6,2.1-4.6,4.6-4.6
	c2.6,0,4.6,2.1,4.6,4.6C-284.7,397.4-286.7,399.4-289.3,399.4z"/>
</svg>
